<?xml version="1.0" standalone="no"?><!DOCTYPE svg PUBLIC "-//W3C//DTD SVG 1.1//EN" "http://www.w3.org/Graphics/SVG/1.1/DTD/svg11.dtd"><svg t="1751434398390" class="icon" viewBox="0 0 1024 1024" version="1.1" xmlns="http://www.w3.org/2000/svg" p-id="4641" id="mx_n_1751434398391" xmlns:xlink="http://www.w3.org/1999/xlink" width="512" height="512"><path d="M201.14 0h622.053q201.14 0 201.14 201.14v621.72q0 201.14-201.14 201.14H201.14Q0 1024 0 822.86V201.14Q0 0 201.14 0z" fill="#F4518C" p-id="4642"></path><path d="M776.425 240.01H640.563l61.576-61.575c10.612-10.613 10.612-25.544 0-36.156s-25.544-10.613-36.156 0L562.081 246.304H460.154L356.129 142.279c-8.515-10.613-21.225-12.71-33.935-6.294-2.098 0-2.098 2.098-4.319 4.196-10.612 10.612-10.612 25.544 0 36.156l63.674 63.674H245.81c-74.41 0-135.862 61.576-135.862 135.862v337.495c0 72.065 61.453 133.641 135.862 133.641h21.225a44.917 44.917 0 0 0 44.547 44.67c23.322 0 44.547-21.347 44.547-44.67h314.173c2.098 25.544 23.322 44.67 48.866 42.45 23.322-2.098 40.228-19.127 42.45-42.45h16.905c74.286 0 135.862-61.576 135.862-135.862V373.651c-2.098-74.286-63.674-133.64-137.96-133.64zM772.23 764.21H254.201c-27.517 0-48.742-23.323-50.84-50.84l-2.221-343.913c0-27.641 23.446-50.964 50.964-50.964h517.904c27.642 0 48.866 23.323 50.964 50.964l2.098 343.912c-2.098 29.616-23.323 50.84-50.84 50.84z" fill="#FFFFFF" opacity=".15" p-id="4643"></path><path d="M421.9 435.227l12.71 63.674-169.796 31.837-12.71-63.674z m163.504 63.674l12.71-63.674 169.797 31.837-12.71 63.674z m33.934 133.764c0 2.098 0 6.417-2.097 8.515-10.613 23.322-33.935 38.13-61.576 40.351-17.03 0-33.935-8.514-44.547-21.348-12.71 12.834-27.642 21.348-44.67 21.348a77.741 77.741 0 0 1-61.453-40.351c0-2.221-2.221-4.319-2.221-8.515 0-8.514 6.416-14.93 14.93-17.029h2.099c6.416 0 10.612 2.222 12.71 8.515 0 0 17.029 23.322 31.837 23.322 29.739 0 29.739-25.42 46.768-44.547 19.003 21.225 19.003 44.547 46.644 44.547 19.127 0 31.837-23.322 31.837-23.322 2.098-4.196 8.515-8.515 12.71-8.515 8.515-2.097 14.932 4.32 17.03 12.71v4.32z" fill="#FFFFFF" opacity=".15" p-id="4644"></path><path d="M759.766 603.05c-5.923-5.923-13.82-9.872-19.744-13.82-19.867-9.996-41.585-17.894-63.427-21.842s-45.41-7.898-69.226-5.924c-3.949 0-5.923 0-9.872 1.975-9.872-83.048-13.82-164.244-9.872-247.415-25.79 8.021-47.509 19.867-71.325 27.765 23.816 120.684 37.637 241.491 47.509 364.15h7.897c17.893 0 33.688 0 51.458-3.949 21.841-1.974 43.56-7.898 65.401-13.944 21.718-7.898 41.462-15.795 57.38-31.59 9.872-7.898 17.77-15.795 19.744-27.765 5.923-9.872 3.95-19.744-5.923-27.641z m-120.684 67.252c-3.949-23.692-5.923-45.534-9.872-67.252 23.693 5.923 45.411 15.795 67.253 23.692-17.893 15.919-37.637 29.74-57.38 43.56z m-324.539-69.227a139.07 139.07 0 0 0-21.841-13.82c-19.744-9.996-41.586-15.919-63.304-19.867s-43.56-5.924-65.278-3.95c-3.948 0-5.923 0-9.872 1.975-9.995-83.047-15.918-166.218-11.97-249.389-23.692 6.047-47.508 19.867-69.226 27.765 23.816 120.684 37.637 241.491 47.509 364.15h7.897a395.493 395.493 0 0 0 96.992-11.847 207.804 207.804 0 0 0 73.175-33.687c9.995-7.898 19.867-17.77 23.816-29.74 5.923-11.846 1.974-21.718-7.898-31.59z m-120.807 69.227c-3.949-23.692-5.923-45.534-9.872-67.252 7.898 0 59.355 19.744 65.278 23.692-15.795 15.919-35.539 29.74-55.406 43.56z m243.466-75.15c-1.975-17.893-1.975-33.688-3.949-51.457-1.974-19.867-3.949-41.585-3.949-61.33-1.974-17.892-1.974-37.636-3.948-55.405-1.975-19.867-1.975-39.611-3.95-59.478 0-5.924 0-5.924-5.922-5.924h-2.098c-7.898 0-15.795 0-21.718 1.975-5.923 0-11.847 1.974-17.77 1.974 17.77 98.966 27.642 199.906 37.513 300.846 11.97 0 23.816 1.975 35.663 1.975v-7.898c-7.898-23.816-9.872-43.56-9.872-65.278z m445.223 15.795c-1.975-19.744-3.95-37.636-3.95-57.38-1.974-19.744-3.948-41.586-5.922-61.33s-1.975-37.636-3.95-57.38c-1.973-23.816-3.948-45.534-3.948-69.35 0-5.923 0-5.923-5.923-5.923h-17.893c-7.897 0-15.795 1.974-25.667 3.949 17.77 98.966 27.765 199.906 37.637 300.846 11.846 0 23.692 1.974 35.539 1.974v-1.974z m-61.33-41.585c-1.974-15.795-3.948-33.565-7.897-49.483 0-3.949-1.974-3.949-3.949-3.949h-19.744c-8.02 1.975-15.918 1.975-25.79 3.949 9.872 53.432 21.718 106.863 31.713 160.295 11.847-1.974 23.693-1.974 35.54-3.949-1.975-13.82-1.975-25.667-3.95-37.513-1.974-21.842-3.948-45.534-5.923-69.35z m-445.222 0c-1.975-15.795-3.95-31.59-5.923-49.483 0-3.949-1.975-3.949-5.924-3.949-9.995 0-19.867 1.975-27.764 1.975-5.923 0-9.872 1.974-15.795 3.948 9.872 53.432 21.718 106.864 31.59 160.295 11.97-1.974 23.816-1.974 35.662-3.948v-1.975c-1.974-13.82-1.974-29.615-3.949-43.56-3.949-21.718-5.923-43.436-7.897-63.303z m126.607-41.585c0-5.924 0-5.924-5.923-5.924-13.821-1.974-27.642 0-43.56 0 5.923 55.406 9.872 108.838 15.918 162.27h35.54V678.2c0-49.483 0-98.966-1.975-150.423z m447.32 96.991c0-31.59-2.097-63.304-2.097-96.991 0-5.924 0-5.924-5.924-5.924-13.82-1.974-29.615 0-43.436 0 5.923 55.406 9.872 108.838 15.795 162.27H949.8v-3.949a259.631 259.631 0 0 0 0-55.406zM336.262 456.575c1.974 11.847 3.948 25.79 3.948 37.637l1.975 1.974c5.923 0 13.82 0 19.867-1.974 0-7.897-2.098-13.82-2.098-19.867-1.974-13.82-1.974-25.667-3.949-39.488l-1.974-1.974c-5.923-1.974-13.82-1.974-21.718 0v3.949c3.949 7.897 3.949 13.82 3.949 19.743z m453.243 39.611c5.923 0 13.821 0 19.744-1.974 0-7.897-1.974-13.82-1.974-21.842-1.975-11.846-1.975-25.666-3.949-37.513a1.974 1.974 0 0 0-1.974-1.974 40.968 40.968 0 0 0-21.842 0v1.974c1.974 19.744 3.949 39.488 7.898 59.355 0 1.974 2.097 1.974 2.097 1.974z m-308.743 1.975c0 1.974 0 1.974 1.974 1.974h19.744V444.73c0-3.949 0-3.949-3.949-5.923-5.923 0-11.846 0-17.77-1.974z m447.197 3.949h19.744v-59.355l-1.975-1.975c-7.897 0-13.82-1.974-21.718-1.974v1.974c0 19.744 0 39.611 1.974 59.355a1.974 1.974 0 0 0 1.975 1.975z m-595.646-3.95c1.974 0 1.974-1.974 1.974-3.948 0-5.923 0-11.846-1.974-15.795-1.974-11.97-3.949-25.79-5.923-37.637 0-1.974 0-3.948-3.949-1.974-5.923 0-11.846 1.974-17.893 1.974 4.072 19.744 8.021 41.586 11.97 61.33 5.923-1.975 9.872-3.95 15.795-3.95z m443.248 0a4.196 4.196 0 0 0 3.949-3.948c-1.974-11.846-1.974-21.842-3.949-33.688 0-5.923-1.974-13.82-3.949-19.744 0-1.974 0-3.948-1.974-3.948-5.923 0-11.846 1.974-19.744 1.974 3.95 19.744 7.898 41.585 11.847 61.33 3.948 0 9.871 0 13.82-1.975z m140.551 3.95l1.975-1.975V444.73c-1.975-1.974-1.975-3.949-3.949-3.949-5.923 0-13.82 0-19.867 1.975 2.098 19.744 2.098 41.585 4.072 61.329 5.923-1.974 11.846-1.974 17.77-1.974z m-445.222 0l1.974-1.975V444.73l-1.974-1.974c-6.047 0-13.944 0-19.868 1.974 1.975 19.744 1.975 41.586 3.95 61.33 5.922-3.95 9.871-3.95 15.918-3.95z" fill="#FFFFFF" p-id="4645"></path></svg>